<mxfile host="app.diagrams.net" modified="2023-07-10T02:58:50.191Z" agent="Mozilla/5.0 (Windows NT 10.0; Win64; x64) AppleWebKit/537.36 (KHTML, like Gecko) Chrome/114.0.0.0 Safari/537.36" etag="nmvq08XppeK7WjVCDTxe" version="21.6.1" type="github">
  <diagram name="第 1 页" id="517rhzZRD5yIPpI3piJI">
    <mxGraphModel dx="1434" dy="764" grid="1" gridSize="10" guides="1" tooltips="1" connect="1" arrows="1" fold="1" page="1" pageScale="1" pageWidth="827" pageHeight="1169" math="0" shadow="0">
      <root>
        <mxCell id="0" />
        <mxCell id="1" parent="0" />
        <mxCell id="YOMKdX-8AJYaU1eb715D-8" style="edgeStyle=orthogonalEdgeStyle;rounded=0;orthogonalLoop=1;jettySize=auto;html=1;entryX=-0.022;entryY=0.442;entryDx=0;entryDy=0;entryPerimeter=0;" edge="1" parent="1" source="YOMKdX-8AJYaU1eb715D-1" target="YOMKdX-8AJYaU1eb715D-3">
          <mxGeometry relative="1" as="geometry" />
        </mxCell>
        <mxCell id="YOMKdX-8AJYaU1eb715D-9" value="下发样板间场景&lt;br&gt;&lt;p class=&quot;MsoNormal&quot;&gt;lliot/receiver/{dst}/&lt;/p&gt;" style="edgeLabel;html=1;align=center;verticalAlign=middle;resizable=0;points=[];" vertex="1" connectable="0" parent="YOMKdX-8AJYaU1eb715D-8">
          <mxGeometry x="-0.0667" relative="1" as="geometry">
            <mxPoint y="-5" as="offset" />
          </mxGeometry>
        </mxCell>
        <mxCell id="YOMKdX-8AJYaU1eb715D-1" value="运维云" style="rounded=0;whiteSpace=wrap;html=1;" vertex="1" parent="1">
          <mxGeometry x="50" y="220" width="110" height="110" as="geometry" />
        </mxCell>
        <mxCell id="YOMKdX-8AJYaU1eb715D-7" style="edgeStyle=orthogonalEdgeStyle;rounded=0;orthogonalLoop=1;jettySize=auto;html=1;exitX=0;exitY=0.75;exitDx=0;exitDy=0;entryX=0.992;entryY=0.836;entryDx=0;entryDy=0;entryPerimeter=0;" edge="1" parent="1" source="YOMKdX-8AJYaU1eb715D-3" target="YOMKdX-8AJYaU1eb715D-1">
          <mxGeometry relative="1" as="geometry" />
        </mxCell>
        <mxCell id="YOMKdX-8AJYaU1eb715D-11" value="上报场景下发状态&lt;br&gt;主题：lliot/dev_report/{did}/2/33109&lt;br&gt;method: dmgr.reportFIIDS" style="edgeLabel;html=1;align=center;verticalAlign=middle;resizable=0;points=[];" vertex="1" connectable="0" parent="YOMKdX-8AJYaU1eb715D-7">
          <mxGeometry x="0.1199" y="-2" relative="1" as="geometry">
            <mxPoint y="10" as="offset" />
          </mxGeometry>
        </mxCell>
        <mxCell id="YOMKdX-8AJYaU1eb715D-3" value="设备" style="rounded=0;whiteSpace=wrap;html=1;" vertex="1" parent="1">
          <mxGeometry x="550" y="220" width="90" height="120" as="geometry" />
        </mxCell>
      </root>
    </mxGraphModel>
  </diagram>
</mxfile>
